<?xml version="1.0" encoding="utf-8"?>
<!-- Svg Vector Icons : http://www.onlinewebfonts.com/icon -->
<!DOCTYPE svg PUBLIC "-//W3C//DTD SVG 1.1//EN" "http://www.w3.org/Graphics/SVG/1.1/DTD/svg11.dtd">
<svg version="1.1" xmlns="http://www.w3.org/2000/svg" xmlns:xlink="http://www.w3.org/1999/xlink" x="0px" y="0px" viewBox="0 0 1000 1000" enable-background="new 0 0 1000 1000" xml:space="preserve">
<metadata> Svg Vector Icons : http://www.onlinewebfonts.com/icon </metadata>
<g><g transform="translate(0.000000,512.000000) scale(0.100000,-0.100000)"><path d="M1939.1,3488.1v-1531h306.2h306.2v1224.8v1224.8h1622.8h1620.9l828.6-828.6l826.7-826.7v-398v-396.1h306.2h306.2v522.4v520.5L7052.5,4010.6L6043.9,5019.1H3990.5H1939.1V3488.1z"/><path d="M1958.2,1314.2c-200.9-42.1-426.7-164.6-572.2-311.9c-220.1-220.1-216.3-206.7-777-2170.1c-277.5-970.3-501.4-1766.3-499.5-1768.3c3.8-3.8,2206.5-3.8,4895.2-1.9l4891.4,5.7l-503.3,1764.4C8991,236.8,8874.3,623.3,8816.9,736.2c-145.4,277.5-421,488-746.3,570.3c-143.5,38.3-222,38.3-3067.6,36.4C2580.1,1342.9,2061.5,1337.1,1958.2,1314.2z M3163.8,426.2V120h-306.2h-306.2v306.2v306.2h306.2h306.2V426.2z M4388.6,426.2V120h-306.2h-306.2v306.2v306.2h306.2h306.2V426.2z M5613.3,426.2V120h-306.2H5001v306.2v306.2h306.2h306.2V426.2z M6838.1,426.2V120h-306.2h-306.2v306.2v306.2h306.2h306.2V426.2z M2551.4-798.5v-306.2h-306.2h-306.2v306.2v306.2h306.2h306.2V-798.5z M3776.2-798.5v-306.2H3470h-306.2v306.2v306.2H3470h306.2V-798.5z M5001-798.5v-306.2h-306.2h-306.2v306.2v306.2h306.2H5001V-798.5z M6225.7-798.5v-306.2h-306.2h-306.2v306.2v306.2h306.2h306.2V-798.5z M7450.5-798.5v-306.2h-306.2h-306.2v306.2v306.2h306.2h306.2V-798.5z M2551.4-2023.3v-306.2h-306.2h-306.2v306.2v306.2h306.2h306.2V-2023.3z M6838.1-2023.3v-306.2H5001H3163.8v306.2v306.2H5001h1837.1V-2023.3z M8062.9-2023.3v-306.2h-306.2h-306.2v306.2v306.2h306.2h306.2V-2023.3z"/><path d="M287.5-3921.7c172.2-340.6,197.1-380.8,331.1-512.9c105.3-105.3,183.7-164.6,289-216.3c277.5-135.9,3.8-128.2,4169.9-128.2c4103,0,3856.1-5.7,4080,107.1c200.9,101.4,292.8,222,530.1,692.8l212.4,424.8H5001H100L287.5-3921.7z"/></g></g>
</svg>