<?xml version="1.0" encoding="utf-8"?>
<!-- Svg Vector Icons : http://www.onlinewebfonts.com/icon -->
<!DOCTYPE svg PUBLIC "-//W3C//DTD SVG 1.1//EN" "http://www.w3.org/Graphics/SVG/1.1/DTD/svg11.dtd">
<svg version="1.1" xmlns="http://www.w3.org/2000/svg" xmlns:xlink="http://www.w3.org/1999/xlink" x="0px" y="0px" viewBox="0 0 1000 1000" enable-background="new 0 0 1000 1000" xml:space="preserve">
<metadata> Svg Vector Icons : http://www.onlinewebfonts.com/icon </metadata>
<g><g transform="translate(0.000000,511.000000) scale(0.100000,-0.100000)"><path d="M2517.6,4998.5c-669-102.1-1168-347-1612.5-789.2c-371.9-371.9-610.1-798.3-741.6-1329c-47.6-190.5-47.6-233.6-54.4-2966.5L100-2857.7l56.7-56.7c47.6-47.6,79.4-56.7,183.7-56.7h124.7v-850.5v-852.7l56.7-54.4l54.4-56.7h4424.8h4424.8l54.4,56.7l56.7,54.4v852.7v850.5h124.7c106.6,0,136.1,9.1,186,59c56.7,56.7,59,65.8,45.4,258.5c-43.1,675.8-381,1192.9-1072.8,1648.8c-142.9,93-594.2,340.2-1002.4,548.8c-408.2,208.7-812,424.1-900.4,478.5c-551.1,347-882.2,675.8-1102.2,1095.4c-181.4,347-242.6,607.8-269.9,1161.2c-11.3,213.2-36.3,460.4-54.4,551.1c-115.7,537.5-362.9,991.1-748.4,1378.9c-385.6,385.6-836.9,630.5-1378.9,748.4C3202.6,4991.7,2656,5018.9,2517.6,4998.5z M3154.9,4624.3c326.6-45.4,734.8-204.1,1004.7-390.1c147.4-102.1,442.3-387.8,562.5-546.6c56.7-77.1,142.9-220,195-319.8c183.7-367.4,238.1-598.7,267.6-1138.5c11.3-215.5,36.3-471.7,56.7-567C5413.8,830,5847,263,6731.5-285.9c115.7-72.6,539.7-299.4,945.7-508c771.1-392.4,1022.9-542,1274.6-757.5c285.7-240.4,487.6-569.3,548.8-893.6l31.8-163.3H4998.8H465.1V-72.7c0,2742,0,2746.5,122.5,3107.1c124.7,362.9,310.7,657.7,582.9,929.9c204.1,199.6,360.6,310.7,598.7,430.9C2209.2,4612.9,2676.4,4692.3,3154.9,4624.3z M1553.8-3458.7c0-489.9,0-489.9,56.7-544.3c72.6-74.8,176.9-74.8,249.5,0c56.7,54.4,56.7,54.4,56.7,544.3v487.6h181.4h181.4v-487.6c0-489.9,0-489.9,56.7-544.3c72.6-74.8,176.9-74.8,249.5,0c56.7,54.4,56.7,54.4,56.7,544.3v487.6h362.9h362.9v-487.6c0-489.9,0-489.9,56.7-544.3c72.6-74.8,176.9-74.8,249.5,0c56.7,54.4,56.7,54.4,56.7,544.3v487.6h181.4h181.4v-487.6c0-489.9,0-489.9,56.7-544.3c72.6-74.8,176.9-74.8,249.5,0c56.7,54.4,56.7,54.4,56.7,544.3v487.6h181.4h181.4v-487.6c0-489.9,0-489.9,56.7-544.3c72.6-74.8,176.9-74.8,249.5,0c56.7,54.4,56.7,54.4,56.7,544.3v487.6h362.9h362.9v-487.6c0-489.9,0-489.9,56.7-544.3c72.6-74.8,176.9-74.8,249.5,0c56.7,54.4,56.7,54.4,56.7,544.3v487.6h181.4H6634v-487.6c0-489.9,0-489.9,56.7-544.3c72.6-74.8,176.9-74.8,249.5,0c56.7,54.4,56.7,54.4,56.7,544.3v487.6h362.9h362.9v-487.6c0-489.9,0-489.9,56.7-544.3c34-36.3,81.6-56.7,124.7-56.7s90.7,20.4,124.7,56.7c56.7,54.4,56.7,54.4,56.7,544.3v487.6h181.4h181.4v-487.6c0-489.9,0-489.9,56.7-544.3c72.6-74.8,176.9-74.8,249.5,0c56.7,54.4,56.7,54.4,56.7,544.3v487.6h181.4h181.4v-725.8v-725.7h-4173H828v725.7v725.8h362.9h362.9V-3458.7z"/></g></g>
</svg>